PathFileType	4	(X/Y/Z)	63_1_51_p1_0-226.trc
DataRate	CameraRate	NumFrames	NumMarkers	Units	OrigDataRate	OrigDataStartFrame	OrigNumFrames
60.0	60.0	6	27	m	60.0	141	227
Frame#	Time	RHip			RKnee			RAnkle			RBigToe			RSmallToe			RHeel			LHip			LKnee			LAnkle			LBigToe			LSmallToe			LHeel			Neck			Head			Nose			RShoulder			RElbow			RWrist			RThumb			RIndex			RPinky			LShoulder			LElbow			LWrist			LThumb			LIndex			LPinky			
		X1	Y1	Z1	X2	Y2	Z2	X3	Y3	Z3	X4	Y4	Z4	X5	Y5	Z5	X6	Y6	Z6	X7	Y7	Z7	X8	Y8	Z8	X9	Y9	Z9	X10	Y10	Z10	X11	Y11	Z11	X12	Y12	Z12	X13	Y13	Z13	X14	Y14	Z14	X15	Y15	Z15	X16	Y16	Z16	X17	Y17	Z17	X18	Y18	Z18	X19	Y19	Z19	X20	Y20	Z20	X21	Y21	Z21	X22	Y22	Z22	X23	Y23	Z23	X24	Y24	Z24	X25	Y25	Z25	X26	Y26	Z26	X27	Y27	Z27	
141	2.35	0.30176026302281794	0.6033082518533243	0.6888787935268329	0.3264133233012595	0.7119459642622068	1.1397688812057156	0.3382957098679576	0.8151806854412547	1.5742589257778525	0.28422841937115606	0.6272171897974731	1.6071066417049933	0.3479496381558789	0.6365476214347471	1.5955663643766282	0.33689006140474986	0.9354540340090467	1.6339372432836379	0.0852813507848997	0.6009285815393632	0.692284199851517	0.09833068597079368	0.7250370190474418	1.1471715598165018	0.13085707435110058	0.8717940781093133	1.5810641260816436	0.13528574903011134	0.6371549606497354	1.5941398431635023	0.08368377920667663	0.7290037982830628	1.6064974196033326	0.1485522197223515	0.9252256987915757	1.623246085552742	0.2037076341220152	0.32694377642363004	0.18447596220788143	0.24213138862987416	0.16719847260172227	-0.028036278664383782	0.2055968751663555	0.13614243788368174	0.12596613008565594	0.3521455866005084	0.32422579811356633	0.2494166497899459	0.38882453201617645	0.5279044628688365	0.4592812033927678	0.3171345869013316	0.36886057510253106	0.6167477330405315	0.25736383696396314	0.1829342891246812	0.671041952458552	0.27077253464483514	0.20266182580252431	0.6758557220320729	0.313185937715182	0.2790353513436844	0.7013355444371699	0.0444121531076415	0.3243741760373984	0.24138766195689534	-0.01325006903531624	0.46834035874790925	0.44540854007859754	0.051652159228224054	0.2995153112024533	0.6002217392913836	0.11105564822863018	0.22001304436274255	0.6300864225022058	0.0833987199421512	0.16168797760538392	0.6657213123141767	0.06536347854841956	0.23582363086562927	0.6867107895498338
142	2.3666666666666667	0.30097970246558464	0.6007755713070279	0.6837013570815106	0.3259685538938937	0.7123141622997331	1.1357812700500696	0.33829876990539254	0.8153099395353204	1.5742104096089837	0.2843337906444562	0.627621558253282	1.6072544538009899	0.3530608230714364	0.6506860010246975	1.599742385222079	0.3352406602970136	0.9320110333905531	1.6281035562155122	0.0853069924078803	0.6011563560416493	0.6921772701510912	0.09833014893914846	0.7252118997316653	1.147102142369711	0.1304284803809658	0.8728396599955873	1.5773197192602955	0.13532542513473958	0.6371394416920423	1.5940982392559633	0.08381247759707008	0.7291997559027747	1.6064552577126496	0.14817746502742915	0.9250224138051483	1.6232170723530739	0.2036844672557603	0.326880577009529	0.18449706761875123	0.24238558744510175	0.1688495442629511	-0.02473539186780616	0.20559801311377862	0.1362456572027895	0.126090220170988	0.35191364303877887	0.3242407309642297	0.24947776924626003	0.3888885007663148	0.5268873316249961	0.45634644453060635	0.31698873800858063	0.36922565809205343	0.616781561390569	0.25730654983885126	0.18308771896387496	0.6742925832707702	0.27054370516085635	0.2028598658117647	0.6798688487751531	0.3144234608553294	0.280761340435476	0.7091186075940118	0.04451909943423384	0.32419381199536873	0.24149915228209495	-0.01771019230536893	0.4795891544078491	0.4410457619081296	0.05150005381393011	0.29957110909128776	0.6004638627403486	0.10305697905613119	0.20965923959507207	0.6448730718777475	0.07950431456931531	0.16302611375250692	0.6726807939143068	0.06129346597484048	0.23494122609294948	0.6909601067938336
143	2.3833333333333333	0.3007608284124826	0.6007754791087808	0.6839517102499327	0.3262746767541561	0.7117681536797748	1.1394748079179473	0.338258175874858	0.8152722134738007	1.574258721391346	0.2857251762767549	0.6301840375030601	1.6121739366186074	0.35307176603300205	0.6506560976067127	1.599781648711589	0.33520505287726915	0.9321531240352234	1.62816965837563	0.08543541891505281	0.6012266003643486	0.6921523180013404	0.09834593562949079	0.7250546835123678	1.1471319781405658	0.13083421500716808	0.8719734717427259	1.5810950767557614	0.13539220986517947	0.6372837246921152	1.5941172518863869	0.08380002993606454	0.7291135388025948	1.6064189670012532	0.14827602918239444	0.9252007848414188	1.6233059144433095	0.19994182099073912	0.3272095411115364	0.18822560349167558	0.242520292828647	0.16910170455047738	-0.021645847444703884	0.20564084604281468	0.1367843514758269	0.1290487880277628	0.3506659390497629	0.3122467886548441	0.25455772779727975	0.38872231459805656	0.5285033691714249	0.4593473457598504	0.3180114681988885	0.37115795130285667	0.6240787127882711	0.25755585082803856	0.18306075841636443	0.6749946490564226	0.2713410733489846	0.20369665881881202	0.6835967221953003	0.3150730423470935	0.28370970686474867	0.7170159906804827	0.044562444624912656	0.3239988917020493	0.24160626696048512	-0.016954865000105394	0.4807201044370583	0.44152005378693693	0.04746719545301134	0.2986692059399055	0.6008999650154565	0.09762271391238776	0.2142419400728004	0.6520185301458157	0.07602177151587863	0.17381854028778268	0.6738050210712747	0.058312556950461204	0.23557002693627682	0.6950980759774187
144	2.4	0.3009477417975739	0.6006333406066017	0.6836363791584945	0.3259571598435727	0.7122571186937883	1.1355613654227998	0.33547683992590976	0.8328642644355014	1.5793391107623513	0.2845934516453101	0.6271694672680769	1.6070097788612376	0.3531650894609603	0.6505641843871598	1.5997302024046542	0.33193470712477663	0.9513793309777387	1.6337583030163094	0.08552008337989433	0.6013336912224567	0.6919571468534244	0.09862480086971533	0.7242488909227054	1.1388557806694362	0.13049520639628437	0.8723894309258758	1.5771327351711741	0.1353879052465293	0.6371069027781558	1.5939985710994504	0.08396599950278295	0.729124318782868	1.6062874379883627	0.1508221251726936	0.9072502286714246	1.6227257666823593	0.19990613711981334	0.32702613717325413	0.1883373343492299	0.2456932990444084	0.15754091908965948	-0.01595523781793591	0.20832802485689797	0.1262320125335038	0.13363166464053047	0.35269361742722266	0.2973791033583181	0.25610730823568595	0.3911555432199701	0.5136275965221584	0.4600118289800506	0.31784826018217416	0.37184435771100394	0.6278888910978232	0.25738680509168677	0.18308535901475406	0.6752174425783787	0.2716935874913417	0.20370204602670453	0.687330672992594	0.3168517734019118	0.2877510973244443	0.7238726946704745	0.04462063050217248	0.3239762401545774	0.2417520814933055	-0.013087658463251158	0.4667950131197977	0.4420427924431465	0.05134683834132636	0.2999715908423048	0.6009239713380956	0.10139634818873806	0.22761913812220566	0.6626961707349963	0.07986087944168825	0.1750864528000951	0.6772265742739642	0.057757605925868295	0.23536252160266227	0.6953571402784311
145	2.4166666666666665	0.3005656149934554	0.60111558839611	0.6802868657319884	0.32598058946549596	0.7124683128178361	1.1356337881231127	0.335507361492332	0.833174453730188	1.5794738872812744	0.28434785759108355	0.6271467702519764	1.6071359301253119	0.3530470248536294	0.6506992146453641	1.599814875223896	0.3320129616987351	0.9518625618618918	1.6340557998374945	0.08523378370938672	0.6012921535976873	0.6881945887157344	0.09900874845835692	0.723671316595643	1.1426810450034188	0.13046617021518697	0.8726236051746308	1.5771253238156906	0.13545226717067754	0.6372582891684774	1.5940811519990048	0.08404035277675317	0.7292014707292088	1.6063460259190827	0.14683659007320596	0.9264472872424141	1.6286897477468822	0.1999176250410153	0.32793201988584286	0.19505299766351022	0.24583241113378823	0.15749103311111518	-0.015792913460870455	0.2083320905897153	0.12686059417729584	0.13645841790612456	0.3501908700769677	0.31028189632627656	0.25479929940135176	0.3912306381472252	0.5129030914252604	0.45663990948428945	0.3177722868326409	0.3722401726234542	0.6281146670092407	0.2576090889506709	0.1833140093454478	0.6758165026352756	0.27715327996234035	0.2145835468944536	0.6941790599264185	0.3189559808011945	0.31314469779409304	0.7287014400032074	0.044394443270141984	0.32475609327223154	0.24500708041449315	-0.011819313480367171	0.44352933762914987	0.4509056083968115	0.04767284681193767	0.30144756245334453	0.6082928821932506	0.09726936198396878	0.22857019244192128	0.6696336298457192	0.07612562784059329	0.17727709845019646	0.6845621573651646	0.050793811825408125	0.24798688864039928	0.7100639078542597
146	2.433333333333333	0.3003039545680855	0.6016000239024241	0.6767524405512341	0.32478698406184314	0.709653775196332	1.1311797562796726	0.33507373290059284	0.8338056956932729	1.5755742672326785	0.28592384637242285	0.6302729974911772	1.6121368718506588	0.35326956776513985	0.6510326376256647	1.5997586831193384	0.3318584425742215	0.9513394033837514	1.633935118477469	0.08534035393273827	0.601491808952287	0.6880592755123259	0.09860685252084506	0.7241161126432772	1.1387300635351247	0.13046903757832	0.8724753770432455	1.5769053512990145	0.13548376397510142	0.6370661234329793	1.5939779818751716	0.0841115967140521	0.7289885641491711	1.6061052666239761	0.14741010561695048	0.9235940526649085	1.622858597273309	0.20035712811550327	0.32956367686894467	0.19867710316181617	0.24580261014342025	0.15753461811148808	-0.015800838778182162	0.2050610899017972	0.11711593214701638	0.1417792961887447	0.3531713360107118	0.2988743718744572	0.2596161795398377	0.3921898889442758	0.515596502523226	0.45987802990034743	0.3184599125081012	0.3742625415090569	0.6318083992284427	0.2581057402226086	0.18360386210553578	0.6797440271721406	0.2775771273681321	0.2145022467642866	0.7011595090265386	0.3198435692368137	0.3042371524248671	0.728920622986594	0.04205058240732975	0.31547996339567663	0.2536573187078815	-0.015335008283617788	0.45620731359880395	0.4512926455906862	0.04808201157831134	0.31437939943133164	0.6082968065282142	0.09352258913961875	0.21917011029712802	0.6731898683047023	0.07581329599147155	0.176602019625585	0.688511124773036	0.046653314487610974	0.24789919170250765	0.7170134576886326
